<?xml version="1.0" encoding="utf-8"?>
<!-- Generator: Adobe Illustrator 23.1.0, SVG Export Plug-In . SVG Version: 6.00 Build 0)  -->
<svg version="1.1" id="Layer_1" xmlns="http://www.w3.org/2000/svg" xmlns:xlink="http://www.w3.org/1999/xlink" x="0px" y="0px"
	 viewBox="0 0 2000 2000" style="enable-background:new 0 0 2000 2000;" xml:space="preserve">
<style type="text/css">
	.st0{fill:#FEFFDB;}
	.st1{fill:#A09773;}
	.st2{fill:#CCC193;}
</style>
<circle class="st0" cx="1000" cy="1000" r="1000"/>
<path class="st1" d="M750,1183.23H497.55c0,0-70.88,0.2-74.26-53.33c-3.97-35,21.03-63.53,21.03-63.53L910.2,477.06
	c0,0,34.9-40.39,89.8-41.57c54.9-1.18,87.84,36.86,87.84,36.86l464.31,585.88c0,0,29.41,35.29,28.24,68.63
	c0.03,19.61-12.16,53.53-76.86,56.37c-64.71,2.84-253.53,0-253.53,0v379.71c0,0-5.69,113.43-123.63,120.2H868.43
	c0,0-107.65-0.29-118.53-118.53L750,1183.23z"/>
<path class="st2" d="M750,1123.93H497.55c0,0-70.88,0.2-74.26-53.33c-3.97-35,21.03-63.53,21.03-63.53L910.2,417.76
	c0,0,34.9-40.39,89.8-41.57c54.9-1.18,87.84,36.86,87.84,36.86l464.31,585.88c0,0,29.41,35.29,28.24,68.63
	c0.03,19.61-12.16,53.53-76.86,56.37c-64.71,2.84-253.53,0-253.53,0v379.71c0,0-5.69,113.43-123.63,120.2H868.43
	c0,0-107.65-0.29-118.53-118.53L750,1123.93z"/>
</svg>
