<svg id="Layer_1" data-name="Layer 1" xmlns="http://www.w3.org/2000/svg" viewBox="0 0 433.39 243.88"><defs><style>.cls-1{isolation:isolate;}</style></defs><title>logo_text</title><g class="cls-1"><path d="M580.89,969.49v99.17h3.18q6.63,0,9.54,2.59a8.66,8.66,0,0,1,2.9,6.77,8.57,8.57,0,0,1-2.86,6.67q-2.85,2.6-9.58,2.59h-21.8v-4.54a55,55,0,0,1-13.3,5.63,54.19,54.19,0,0,1-14.4,1.91q-21,0-33.78-12.13T488,1048a43.76,43.76,0,0,1,13.45-32.25q13.44-13.35,32.78-13.35a46.88,46.88,0,0,1,14.26,2.23,56.77,56.77,0,0,1,13.8,6.67V988.1H559.1q-6.74,0-9.59-2.58a9.32,9.32,0,0,1,0-13.44q2.87-2.6,9.59-2.59Zm-18.62,79a26.41,26.41,0,0,0-8.08-19.53,28.4,28.4,0,0,0-39.5,0,26.11,26.11,0,0,0-8.09,19.26,21.71,21.71,0,0,0,7.27,16.85q7.26,6.57,20.52,6.58t20.53-6.58A21.32,21.32,0,0,0,562.27,1048.5Z" transform="translate(-487.98 -969.49)"/><path d="M698.14,1047.59a40.11,40.11,0,0,1-5.95,20.75q-5.94,10-17.71,16a53.57,53.57,0,0,1-48.9.09,42.29,42.29,0,0,1-17.71-15.94,40.15,40.15,0,0,1-6.09-21.07,44.84,44.84,0,0,1,23.93-38.87,50.56,50.56,0,0,1,48.68.13,43.2,43.2,0,0,1,17.76,17A44.28,44.28,0,0,1,698.14,1047.59Zm-18.62.09a24.94,24.94,0,0,0-6.44-16.53Q664.26,1021,649.92,1021q-12.63,0-21.07,8.08t-8.45,18.71q0,8.73,8.54,16.31t21,7.58q12.52,0,21.07-7.58T679.52,1047.68Z" transform="translate(-487.98 -969.49)"/><path d="M770.71,969.49v99.17h22.34q6.72,0,9.58,2.59a8.69,8.69,0,0,1,2.86,6.77,8.57,8.57,0,0,1-2.86,6.67q-2.86,2.6-9.58,2.59h-63.3q-6.72,0-9.58-2.59a9.32,9.32,0,0,1,0-13.44q2.85-2.6,9.58-2.59h22.34V988.1h-15q-6.63,0-9.53-2.58a9.27,9.27,0,0,1-.05-13.44q2.87-2.6,9.58-2.59Z" transform="translate(-487.98 -969.49)"/><path d="M882.33,969.49v99.17h22.34q6.72,0,9.58,2.59a8.69,8.69,0,0,1,2.86,6.77,8.57,8.57,0,0,1-2.86,6.67q-2.87,2.6-9.58,2.59h-63.3q-6.74,0-9.59-2.59a9.32,9.32,0,0,1,0-13.44q2.87-2.6,9.59-2.59h22.34V988.1h-15q-6.63,0-9.53-2.58a9.27,9.27,0,0,1-.05-13.44q2.86-2.6,9.58-2.59Z" transform="translate(-487.98 -969.49)"/><path d="M678.8,1131.18a10.06,10.06,0,0,1,6.9-3.18,8.47,8.47,0,0,1,6.58,2.86q2.6,2.85,2.59,9.49v12q0,6.72-2.59,9.53a8.74,8.74,0,0,1-6.76,2.82,9.81,9.81,0,0,1-6.45-2.18q-1.91-1.63-3-6.68a10.94,10.94,0,0,0-5.26-7.49Q663.45,1144,652,1144q-13.17,0-21.12,7.72t-7.95,19.53q0,10.89,7.63,17.21t25.34,6.31q11.63,0,19-2.36a23.66,23.66,0,0,0,8.27-5q3.9-3.5,7.08-3.5a8.94,8.94,0,0,1,6.59,2.82,9.15,9.15,0,0,1,2.77,6.63q0,6.18-8.45,11.71-12.54,8.26-36.69,8.27-21.71,0-33.79-9-16.35-12.08-16.35-33.06,0-19.89,13.26-32.92t34.61-13a67,67,0,0,1,14.35,1.46A49.92,49.92,0,0,1,678.8,1131.18Z" transform="translate(-487.98 -969.49)"/><path d="M770.71,1092.49v99.17h22.34q6.72,0,9.58,2.59a8.69,8.69,0,0,1,2.86,6.77,8.57,8.57,0,0,1-2.86,6.67q-2.86,2.6-9.58,2.59h-63.3q-6.72,0-9.58-2.59a9.32,9.32,0,0,1,0-13.44q2.85-2.6,9.58-2.59h22.34V1111.1h-15q-6.63,0-9.53-2.58a9.27,9.27,0,0,1-.05-13.44q2.87-2.6,9.58-2.59Z" transform="translate(-487.98 -969.49)"/><path d="M921.38,1170.59a40.21,40.21,0,0,1-6,20.75q-6,10-17.71,16a53.59,53.59,0,0,1-48.91.09,42.35,42.35,0,0,1-17.71-15.94,40.23,40.23,0,0,1-6.08-21.07A44.78,44.78,0,0,1,849,1131.54a50.56,50.56,0,0,1,48.68.13,43.11,43.11,0,0,1,17.75,17A44.19,44.19,0,0,1,921.38,1170.59Zm-18.62.09a24.9,24.9,0,0,0-6.45-16.53q-8.8-10.17-23.16-10.17-12.61,0-21.07,8.08t-8.44,18.71q0,8.73,8.53,16.31t21,7.58q12.54,0,21.07-7.58T902.76,1170.68Z" transform="translate(-487.98 -969.49)"/></g></svg>